<?xml version="1.0" encoding="UTF-8" standalone="no"?>
<!-- Created with Inkscape (http://www.inkscape.org/) -->

<svg
   xmlns:dc="http://purl.org/dc/elements/1.1/"
   xmlns:cc="http://creativecommons.org/ns#"
   xmlns:rdf="http://www.w3.org/1999/02/22-rdf-syntax-ns#"
   xmlns:svg="http://www.w3.org/2000/svg"
   xmlns="http://www.w3.org/2000/svg"
   xmlns:sodipodi="http://sodipodi.sourceforge.net/DTD/sodipodi-0.dtd"
   xmlns:inkscape="http://www.inkscape.org/namespaces/inkscape"
   width="800"
   height="800"
   viewBox="0 0 211.66666 211.66667"
   version="1.1"
   id="svg8"
   inkscape:version="0.92.4 (5da689c313, 2019-01-14)"
   sodipodi:docname="project-1.svg">
  <defs
     id="defs2" />
  <sodipodi:namedview
     id="base"
     pagecolor="#ffffff"
     bordercolor="#666666"
     borderopacity="1.0"
     inkscape:pageopacity="0.0"
     inkscape:pageshadow="2"
     inkscape:zoom="0.49497475"
     inkscape:cx="946.53011"
     inkscape:cy="337.43992"
     inkscape:document-units="px"
     inkscape:current-layer="layer2"
     showgrid="true"
     units="px"
     inkscape:showpageshadow="false"
     inkscape:snap-global="true"
     showguides="true"
     inkscape:guide-bbox="true"
     guidecolor="#fa6200"
     guideopacity="0.72941176"
     inkscape:window-width="1846"
     inkscape:window-height="1057"
     inkscape:window-x="-8"
     inkscape:window-y="-8"
     inkscape:window-maximized="1"
     showborder="false" />
  <metadata
     id="metadata5">
    <rdf:RDF>
      <cc:Work
         rdf:about="">
        <dc:format>image/svg+xml</dc:format>
        <dc:type
           rdf:resource="http://purl.org/dc/dcmitype/StillImage" />
        <dc:title></dc:title>
      </cc:Work>
    </rdf:RDF>
  </metadata>
  <g
     inkscape:groupmode="layer"
     id="layer2"
     inkscape:label="Layer 2"
     sodipodi:insensitive="true">
    <rect
       style="fill:#ffe6d5;stroke:none;stroke-width:0.26458332"
       id="rect863"
       width="211.66666"
       height="211.66666"
       x="0"
       y="2.5999998e-06" />
  </g>
  <g
     inkscape:label="Layer 1"
     inkscape:groupmode="layer"
     id="layer1"
     transform="translate(0,-85.333316)"
     style="display:inline"
     sodipodi:insensitive="true">
    <g
       id="g866">
      <path
         inkscape:connector-curvature="0"
         id="rect845"
         transform="matrix(0.26458333,0,0,0.26458333,0,85.333316)"
         d="M 0,0 V 100 H 100 V 0 Z M 100,100 V 200 H 200 V 100 Z m 100,0 H 300 V 0 H 200 Z m 100,0 V 200 H 400 V 100 Z m 100,0 H 500 V 0 H 400 Z m 100,0 V 200 H 600 V 100 Z m 100,0 H 700 V 0 H 600 Z m 100,0 V 200 H 800 V 100 Z m 0,100 H 600 v 100 h 100 z m 0,100 V 400 H 800 V 300 Z m 0,100 H 600 v 100 h 100 z m 0,100 V 600 H 800 V 500 Z m 0,100 H 600 v 100 h 100 z m 0,100 V 800 H 800 V 700 Z m -100,0 H 500 v 100 h 100 z m -100,0 V 600 H 400 v 100 z m -100,0 H 300 v 100 h 100 z m -100,0 V 600 H 200 v 100 z m -100,0 H 100 v 100 h 100 z m -100,0 V 600 H 0 v 100 z m 0,-100 H 200 V 500 H 100 Z m 0,-100 V 400 H 0 v 100 z m 0,-100 H 200 V 300 H 100 Z m 0,-100 V 200 H 0 v 100 z m 100,0 H 300 V 200 H 200 Z m 100,0 V 400 H 400 V 300 Z m 100,0 H 500 V 200 H 400 Z m 100,0 V 400 H 600 V 300 Z m 0,100 H 400 v 100 h 100 z m 0,100 V 600 H 600 V 500 Z m -100,0 H 300 v 100 h 100 z m -100,0 V 400 H 200 v 100 z"
         style="fill:#000000;stroke:none;stroke-width:0.99999994" />
    </g>
  </g>
</svg>
